<mxfile host="Electron" modified="2024-09-04T07:54:59.356Z" agent="Mozilla/5.0 (X11; Linux x86_64) AppleWebKit/537.36 (KHTML, like Gecko) draw.io/24.6.4 Chrome/124.0.6367.207 Electron/30.0.6 Safari/537.36" etag="vKecGPhITRaqBUE8uckx" version="24.6.4" type="device">
  <diagram id="C5RBs43oDa-KdzZeNtuy" name="Page-1">
    <mxGraphModel dx="3033" dy="1291" grid="1" gridSize="10" guides="1" tooltips="1" connect="1" arrows="1" fold="1" page="1" pageScale="1" pageWidth="827" pageHeight="1169" math="0" shadow="0">
      <root>
        <mxCell id="WIyWlLk6GJQsqaUBKTNV-0" />
        <mxCell id="WIyWlLk6GJQsqaUBKTNV-1" parent="WIyWlLk6GJQsqaUBKTNV-0" />
        <mxCell id="PlDWtkuzw13zwPokNdiY-0" value="&lt;h1 style=&quot;margin-top: 0px; font-size: 33px;&quot;&gt;QnA [Question and Answer] BotPress FlowChart Schematic&lt;/h1&gt;" style="text;html=1;whiteSpace=wrap;overflow=hidden;rounded=0;fontSize=33;" parent="WIyWlLk6GJQsqaUBKTNV-1" vertex="1">
          <mxGeometry x="-796" y="27" width="493" height="100" as="geometry" />
        </mxCell>
        <mxCell id="PlDWtkuzw13zwPokNdiY-1" value="Start" style="ellipse;whiteSpace=wrap;html=1;fontSize=22;" parent="WIyWlLk6GJQsqaUBKTNV-1" vertex="1">
          <mxGeometry x="-441" y="179" width="150" height="100" as="geometry" />
        </mxCell>
        <mxCell id="PlDWtkuzw13zwPokNdiY-2" value="" style="ellipse;whiteSpace=wrap;html=1;aspect=fixed;" parent="WIyWlLk6GJQsqaUBKTNV-1" vertex="1">
          <mxGeometry x="-376" y="309" width="20" height="20" as="geometry" />
        </mxCell>
        <mxCell id="PlDWtkuzw13zwPokNdiY-4" value="User inputs question to be asked" style="shape=parallelogram;perimeter=parallelogramPerimeter;whiteSpace=wrap;html=1;fixedSize=1;fontSize=14;" parent="WIyWlLk6GJQsqaUBKTNV-1" vertex="1">
          <mxGeometry x="-486" y="689" width="240" height="60" as="geometry" />
        </mxCell>
        <mxCell id="PlDWtkuzw13zwPokNdiY-5" value="AI Initial chat prompt" style="shape=parallelogram;perimeter=parallelogramPerimeter;whiteSpace=wrap;html=1;fixedSize=1;fontSize=15;" parent="WIyWlLk6GJQsqaUBKTNV-1" vertex="1">
          <mxGeometry x="-453" y="364" width="173" height="60" as="geometry" />
        </mxCell>
        <mxCell id="PlDWtkuzw13zwPokNdiY-7" value="AI Knowledge Base is queried" style="rounded=0;whiteSpace=wrap;html=1;fontSize=15;" parent="WIyWlLk6GJQsqaUBKTNV-1" vertex="1">
          <mxGeometry x="-453" y="802" width="173" height="60" as="geometry" />
        </mxCell>
        <mxCell id="PlDWtkuzw13zwPokNdiY-8" value="End" style="ellipse;whiteSpace=wrap;html=1;fontSize=22;" parent="WIyWlLk6GJQsqaUBKTNV-1" vertex="1">
          <mxGeometry x="-680.5" y="590" width="135" height="90" as="geometry" />
        </mxCell>
        <mxCell id="PlDWtkuzw13zwPokNdiY-9" value="To Main" style="verticalLabelPosition=bottom;verticalAlign=top;html=1;shape=offPageConnector;rounded=0;size=0.5;fontSize=15;" parent="WIyWlLk6GJQsqaUBKTNV-1" vertex="1">
          <mxGeometry x="-633" y="760" width="40" height="40" as="geometry" />
        </mxCell>
        <mxCell id="PlDWtkuzw13zwPokNdiY-10" value="User asks question?" style="strokeWidth=2;html=1;shape=mxgraph.flowchart.decision;whiteSpace=wrap;fontSize=15;" parent="WIyWlLk6GJQsqaUBKTNV-1" vertex="1">
          <mxGeometry x="-445.24" y="453" width="156.47" height="152" as="geometry" />
        </mxCell>
        <mxCell id="PlDWtkuzw13zwPokNdiY-12" value="From Main" style="verticalLabelPosition=top;verticalAlign=bottom;html=1;shape=offPageConnector;rounded=0;size=0.5;rotation=-90;labelPosition=center;align=center;fontSize=15;" parent="WIyWlLk6GJQsqaUBKTNV-1" vertex="1">
          <mxGeometry x="-603" y="209" width="40" height="40" as="geometry" />
        </mxCell>
        <mxCell id="PlDWtkuzw13zwPokNdiY-14" value="&lt;font style=&quot;font-size: 15px;&quot;&gt;AI Agent&amp;nbsp; retrieves data from Knowledgebase and adds context to response based on question&lt;/font&gt;" style="rounded=0;whiteSpace=wrap;html=1;" parent="WIyWlLk6GJQsqaUBKTNV-1" vertex="1">
          <mxGeometry x="-507.78" y="905" width="282.57" height="98" as="geometry" />
        </mxCell>
        <mxCell id="PlDWtkuzw13zwPokNdiY-15" value="AI posts the processed response to the user" style="shape=parallelogram;perimeter=parallelogramPerimeter;whiteSpace=wrap;html=1;fixedSize=1;fontSize=15;" parent="WIyWlLk6GJQsqaUBKTNV-1" vertex="1">
          <mxGeometry x="-460" y="1055.34" width="187" height="61.31" as="geometry" />
        </mxCell>
        <mxCell id="PlDWtkuzw13zwPokNdiY-16" value="" style="endArrow=classic;html=1;rounded=0;exitX=0.5;exitY=1;exitDx=0;exitDy=0;entryX=0.5;entryY=0;entryDx=0;entryDy=0;" parent="WIyWlLk6GJQsqaUBKTNV-1" source="PlDWtkuzw13zwPokNdiY-1" target="PlDWtkuzw13zwPokNdiY-2" edge="1">
          <mxGeometry width="50" height="50" relative="1" as="geometry">
            <mxPoint x="-403" y="630" as="sourcePoint" />
            <mxPoint x="-353" y="580" as="targetPoint" />
          </mxGeometry>
        </mxCell>
        <mxCell id="PlDWtkuzw13zwPokNdiY-17" value="" style="endArrow=classic;html=1;rounded=0;exitX=0.5;exitY=1;exitDx=0;exitDy=0;entryX=0.5;entryY=0;entryDx=0;entryDy=0;" parent="WIyWlLk6GJQsqaUBKTNV-1" source="PlDWtkuzw13zwPokNdiY-2" target="PlDWtkuzw13zwPokNdiY-5" edge="1">
          <mxGeometry width="50" height="50" relative="1" as="geometry">
            <mxPoint x="-403" y="630" as="sourcePoint" />
            <mxPoint x="-353" y="580" as="targetPoint" />
          </mxGeometry>
        </mxCell>
        <mxCell id="PlDWtkuzw13zwPokNdiY-18" value="" style="endArrow=classic;html=1;rounded=0;exitX=0.5;exitY=1;exitDx=0;exitDy=0;entryX=0.5;entryY=0;entryDx=0;entryDy=0;entryPerimeter=0;" parent="WIyWlLk6GJQsqaUBKTNV-1" source="PlDWtkuzw13zwPokNdiY-5" target="PlDWtkuzw13zwPokNdiY-10" edge="1">
          <mxGeometry width="50" height="50" relative="1" as="geometry">
            <mxPoint x="-403" y="630" as="sourcePoint" />
            <mxPoint x="-363" y="460" as="targetPoint" />
          </mxGeometry>
        </mxCell>
        <mxCell id="PlDWtkuzw13zwPokNdiY-20" value="" style="endArrow=classic;html=1;rounded=0;exitX=0.5;exitY=1;exitDx=0;exitDy=0;exitPerimeter=0;entryX=0.5;entryY=0;entryDx=0;entryDy=0;" parent="WIyWlLk6GJQsqaUBKTNV-1" source="xS_yA9hG1Nevryn0o6OD-1" target="PlDWtkuzw13zwPokNdiY-4" edge="1">
          <mxGeometry width="50" height="50" relative="1" as="geometry">
            <mxPoint x="-403" y="630" as="sourcePoint" />
            <mxPoint x="-353" y="580" as="targetPoint" />
          </mxGeometry>
        </mxCell>
        <mxCell id="PlDWtkuzw13zwPokNdiY-21" value="" style="endArrow=classic;html=1;rounded=0;exitX=0.5;exitY=1;exitDx=0;exitDy=0;entryX=0.5;entryY=0;entryDx=0;entryDy=0;" parent="WIyWlLk6GJQsqaUBKTNV-1" source="PlDWtkuzw13zwPokNdiY-4" target="PlDWtkuzw13zwPokNdiY-7" edge="1">
          <mxGeometry width="50" height="50" relative="1" as="geometry">
            <mxPoint x="-403" y="682" as="sourcePoint" />
            <mxPoint x="-353" y="632" as="targetPoint" />
          </mxGeometry>
        </mxCell>
        <mxCell id="PlDWtkuzw13zwPokNdiY-22" value="" style="endArrow=classic;html=1;rounded=0;exitX=0.5;exitY=1;exitDx=0;exitDy=0;entryX=0.5;entryY=0;entryDx=0;entryDy=0;" parent="WIyWlLk6GJQsqaUBKTNV-1" source="PlDWtkuzw13zwPokNdiY-7" target="PlDWtkuzw13zwPokNdiY-14" edge="1">
          <mxGeometry width="50" height="50" relative="1" as="geometry">
            <mxPoint x="-403" y="686" as="sourcePoint" />
            <mxPoint x="-353" y="636" as="targetPoint" />
          </mxGeometry>
        </mxCell>
        <mxCell id="PlDWtkuzw13zwPokNdiY-23" value="" style="endArrow=classic;html=1;rounded=0;exitX=0.5;exitY=1;exitDx=0;exitDy=0;entryX=0.5;entryY=0;entryDx=0;entryDy=0;" parent="WIyWlLk6GJQsqaUBKTNV-1" source="PlDWtkuzw13zwPokNdiY-14" target="PlDWtkuzw13zwPokNdiY-15" edge="1">
          <mxGeometry width="50" height="50" relative="1" as="geometry">
            <mxPoint x="-403" y="1104" as="sourcePoint" />
            <mxPoint x="-353" y="1054" as="targetPoint" />
          </mxGeometry>
        </mxCell>
        <mxCell id="PlDWtkuzw13zwPokNdiY-24" value="" style="endArrow=classic;html=1;rounded=0;exitX=0.5;exitY=1;exitDx=0;exitDy=0;entryX=0;entryY=0.5;entryDx=0;entryDy=0;" parent="WIyWlLk6GJQsqaUBKTNV-1" source="PlDWtkuzw13zwPokNdiY-12" target="PlDWtkuzw13zwPokNdiY-1" edge="1">
          <mxGeometry width="50" height="50" relative="1" as="geometry">
            <mxPoint x="-403" y="460" as="sourcePoint" />
            <mxPoint x="-353" y="410" as="targetPoint" />
          </mxGeometry>
        </mxCell>
        <mxCell id="PlDWtkuzw13zwPokNdiY-25" value="" style="edgeStyle=segmentEdgeStyle;endArrow=classic;html=1;curved=0;rounded=0;endSize=8;startSize=8;exitX=0;exitY=0.5;exitDx=0;exitDy=0;exitPerimeter=0;entryX=0.5;entryY=0;entryDx=0;entryDy=0;" parent="WIyWlLk6GJQsqaUBKTNV-1" source="xS_yA9hG1Nevryn0o6OD-0" target="PlDWtkuzw13zwPokNdiY-8" edge="1">
          <mxGeometry width="50" height="50" relative="1" as="geometry">
            <mxPoint x="-403" y="460" as="sourcePoint" />
            <mxPoint x="-353" y="410" as="targetPoint" />
          </mxGeometry>
        </mxCell>
        <mxCell id="PlDWtkuzw13zwPokNdiY-26" value="" style="endArrow=classic;html=1;rounded=0;exitX=0.5;exitY=1;exitDx=0;exitDy=0;entryX=0.5;entryY=0;entryDx=0;entryDy=0;" parent="WIyWlLk6GJQsqaUBKTNV-1" source="PlDWtkuzw13zwPokNdiY-8" target="PlDWtkuzw13zwPokNdiY-9" edge="1">
          <mxGeometry width="50" height="50" relative="1" as="geometry">
            <mxPoint x="-403" y="460" as="sourcePoint" />
            <mxPoint x="-353" y="410" as="targetPoint" />
          </mxGeometry>
        </mxCell>
        <mxCell id="PlDWtkuzw13zwPokNdiY-27" value="" style="edgeStyle=elbowEdgeStyle;elbow=horizontal;endArrow=classic;html=1;curved=0;rounded=0;endSize=8;startSize=8;entryX=1;entryY=0.5;entryDx=0;entryDy=0;exitX=1;exitY=0.5;exitDx=0;exitDy=0;" parent="WIyWlLk6GJQsqaUBKTNV-1" source="PlDWtkuzw13zwPokNdiY-15" target="PlDWtkuzw13zwPokNdiY-2" edge="1">
          <mxGeometry width="50" height="50" relative="1" as="geometry">
            <mxPoint x="-243" y="980" as="sourcePoint" />
            <mxPoint x="-353" y="610" as="targetPoint" />
            <Array as="points">
              <mxPoint x="-63" y="670" />
            </Array>
          </mxGeometry>
        </mxCell>
        <mxCell id="xS_yA9hG1Nevryn0o6OD-1" value="Yes" style="rounded=1;whiteSpace=wrap;html=1;fontSize=14;" vertex="1" parent="WIyWlLk6GJQsqaUBKTNV-1">
          <mxGeometry x="-386" y="635" width="40" height="20" as="geometry" />
        </mxCell>
        <mxCell id="xS_yA9hG1Nevryn0o6OD-3" value="" style="edgeStyle=segmentEdgeStyle;endArrow=classic;html=1;curved=0;rounded=0;endSize=8;startSize=8;exitX=0;exitY=0.5;exitDx=0;exitDy=0;exitPerimeter=0;entryX=0.5;entryY=0;entryDx=0;entryDy=0;" edge="1" parent="WIyWlLk6GJQsqaUBKTNV-1" source="PlDWtkuzw13zwPokNdiY-10" target="xS_yA9hG1Nevryn0o6OD-0">
          <mxGeometry width="50" height="50" relative="1" as="geometry">
            <mxPoint x="-437" y="529" as="sourcePoint" />
            <mxPoint x="-613" y="590" as="targetPoint" />
          </mxGeometry>
        </mxCell>
        <mxCell id="xS_yA9hG1Nevryn0o6OD-0" value="No" style="rounded=1;whiteSpace=wrap;html=1;fontSize=15;" vertex="1" parent="WIyWlLk6GJQsqaUBKTNV-1">
          <mxGeometry x="-533" y="519" width="40" height="20" as="geometry" />
        </mxCell>
        <mxCell id="xS_yA9hG1Nevryn0o6OD-4" value="" style="endArrow=none;html=1;rounded=0;entryX=0.5;entryY=1;entryDx=0;entryDy=0;entryPerimeter=0;exitX=0.5;exitY=0;exitDx=0;exitDy=0;" edge="1" parent="WIyWlLk6GJQsqaUBKTNV-1" source="xS_yA9hG1Nevryn0o6OD-1" target="PlDWtkuzw13zwPokNdiY-10">
          <mxGeometry width="50" height="50" relative="1" as="geometry">
            <mxPoint x="-383" y="755" as="sourcePoint" />
            <mxPoint x="-333" y="705" as="targetPoint" />
          </mxGeometry>
        </mxCell>
      </root>
    </mxGraphModel>
  </diagram>
</mxfile>
